<svg xmlns="http://www.w3.org/2000/svg" width="20" height="20" fill="none"><rect id="backgroundrect" width="100%" height="100%" x="0" y="0" fill="none" stroke="none" data-darkreader-inline-stroke="" style="--darkreader-inline-stroke: none;" class=""/>



<g class="currentLayer" style=""><title>Layer 1</title><circle cx="10.122448921203613" cy="9.984301328659058" r="9" stroke="#000000" stroke-width="2" stroke-linecap="round" stroke-linejoin="round" id="svg_1" data-darkreader-inline-stroke="" style="--darkreader-inline-stroke: #e8e6e3;" class=""/><path d="M11.122149010610581,1.032401447868347 C10.77414901061058,1.3252914478683473 10.460649010610581,1.670941447868348 10.193849010610581,2.0669514478683473 C8.651049010610581,4.357201447868348 9.257049010610581,7.4644914478683475 11.54724901061058,9.007301447868347 C11.728049010610581,9.129101447868347 11.91394901061058,9.237501447868347 12.10374901061058,9.332701447868347 C14.122149010610581,10.345501447868347 14.892749010610581,8.980501447868347 15.98564901061058,9.716601447868348 C16.69444901061058,10.194201447868346 16.88204901061058,11.155901447868347 16.40454901061058,11.864801447868347 C15.904049010610581,12.607701447868347 15.122149010610581,12.984301447868347 15.257449010610582,14.201101447868346 C15.333749010610582,14.887901447868348 15.755749010610579,15.479701447868347 16.30244901061058,15.984301447868347 " stroke="#000000" stroke-width="2" stroke-linecap="round" stroke-linejoin="round" id="svg_2" data-darkreader-inline-stroke="" style="--darkreader-inline-stroke: #e8e6e3;" class=""/><path d="M2.1224490106105804,7.264331447868347 C3.2043290106105804,7.527611447868347 4.205449010610581,8.152101447868347 4.92845901061058,9.110201447868347 C5.69912901061058,10.131501447868347 6.018599010610582,11.352701447868347 5.920299010610581,12.534701447868347 C5.86822901061058,13.160701447868346 6.27649901061058,13.792601447868346 6.801849010610581,14.136901447868347 C7.05568901061058,14.303301447868346 7.285679010610582,14.515501447868346 7.478999010610581,14.771701447868349 C8.33504901061058,15.906101447868348 8.16424901061058,17.495301447868346 7.1224490106105804,18.425001447868347 " stroke="#000000" stroke-width="2" stroke-linecap="round" stroke-linejoin="round" id="svg_3" data-darkreader-inline-stroke="" style="--darkreader-inline-stroke: #e8e6e3;" class=""/></g></svg>